<svg width="100.000000" height="100.000000" viewBox="0 0 100 100" fill="none" xmlns="http://www.w3.org/2000/svg" xmlns:xlink="http://www.w3.org/1999/xlink">
	<desc>
			Created with Pixso.
	</desc>
	<defs/>
	<path d="M49.42 0C21.81 0 -0.58 22.38 -0.58 50C-0.58 77.61 21.81 100 49.42 100C77.04 100 99.42 77.61 99.42 50C99.42 22.38 77.04 0 49.42 0ZM66.71 52.65L41.71 68.27C41.2 68.59 40.62 68.75 40.05 68.75C39.53 68.75 39.01 68.62 38.53 68.35C37.54 67.8 36.92 66.76 36.92 65.62L36.92 34.37C36.92 33.23 37.54 32.19 38.53 31.64C39.53 31.08 40.74 31.12 41.71 31.72L66.71 47.34C67.62 47.92 68.17 48.92 68.17 50C68.17 51.07 67.62 52.07 66.71 52.65Z" fill="#D4C17F" fill-opacity="1.000000" fill-rule="nonzero"/>
</svg>
