<svg width="80.000000" height="80.000000" viewBox="0 0 80 80" fill="none" xmlns="http://www.w3.org/2000/svg" xmlns:xlink="http://www.w3.org/1999/xlink">
	<desc>
			Created with Pixso.
	</desc>
	<defs>
		<clipPath id="clip3_2">
			<rect width="80.000000" height="80.000000" fill="white" fill-opacity="0"/>
		</clipPath>
	</defs>
	<rect width="80.000000" height="80.000000" fill="#FFFFFF" fill-opacity="0"/>
	<g clip-path="url(#clip3_2)">
		<path d="M73.33 45.33C74.07 45.33 74.66 44.73 74.66 44L74.66 38.66C74.66 37.93 74.07 37.33 73.33 37.33L66.66 37.33L66.66 36C66.66 35.26 66.07 34.66 65.33 34.66C64.59 34.66 64 35.26 64 36L64 37.33L26.66 37.33L26.66 36C26.66 35.26 26.06 34.66 25.33 34.66C24.59 34.66 24 35.26 24 36L24 37.33L17.33 37.33C16.59 37.33 16 37.93 16 38.66L16 44C16 44.73 16.59 45.33 17.33 45.33L25.33 45.33L65.33 45.33L73.33 45.33ZM18.66 42.66L18.66 40L72 40L72 42.66L18.66 42.66Z" fill="#D4C17F" fill-opacity="1.000000" fill-rule="nonzero"/>
		<path d="M48 29.33C45.84 29.33 44.45 30.97 44.29 31.16C43.83 31.72 43.92 32.55 44.48 33.02C45.05 33.48 45.88 33.4 46.36 32.85C46.36 32.84 47.08 32 47.99 32C48.91 32 49.63 32.84 49.63 32.84C49.89 33.16 50.27 33.33 50.66 33.33C50.96 33.33 51.25 33.23 51.5 33.03C52.07 32.57 52.16 31.73 51.7 31.16C51.54 30.97 50.15 29.33 48 29.33Z" fill="#D4C17F" fill-opacity="1.000000" fill-rule="nonzero"/>
		<path d="M73.33 56C74.07 56 74.66 55.4 74.66 54.66L74.66 49.33C74.66 48.59 74.07 48 73.33 48L66.66 48L66.66 46.66C66.66 45.93 66.07 45.33 65.33 45.33C64.59 45.33 64 45.93 64 46.66L64 48L26.66 48L26.66 46.66C26.66 45.93 26.06 45.33 25.33 45.33C24.59 45.33 24 45.93 24 46.66L24 48L17.33 48C16.59 48 16 48.59 16 49.33L16 54.66C16 55.4 16.59 56 17.33 56L25.33 56L65.33 56L73.33 56ZM18.66 53.33L18.66 50.66L72 50.66L72 53.33L18.66 53.33Z" fill="#D4C17F" fill-opacity="1.000000" fill-rule="nonzero"/>
		<path d="M54.96 26.17C55.22 26.49 55.61 26.66 56 26.66C56.29 26.66 56.59 26.56 56.84 26.36C57.41 25.9 57.49 25.06 57.03 24.49C56.88 24.3 55.48 22.66 53.33 22.66C51.17 22.66 49.78 24.3 49.63 24.49C49.17 25.06 49.25 25.88 49.81 26.35C50.38 26.82 51.22 26.74 51.69 26.18C51.69 26.17 52.42 25.33 53.33 25.33C54.24 25.33 54.96 26.17 54.96 26.17Z" fill="#D4C17F" fill-opacity="1.000000" fill-rule="nonzero"/>
		<path d="M1.34 17.46C1.4 18.14 1.98 18.66 2.66 18.66L10.66 18.66C11.35 18.66 11.92 18.14 11.99 17.46L13.32 4.13C13.36 3.75 13.24 3.38 12.98 3.1C12.73 2.82 12.37 2.66 12 2.66L8 2.66L8 1.33C8 0.59 7.4 0 6.66 0C5.93 0 5.33 0.59 5.33 1.33L5.33 2.66L1.33 2.66C0.95 2.66 0.59 2.82 0.34 3.1C0.09 3.38 -0.04 3.75 0 4.13L1.34 17.46ZM10.52 5.33L9.46 16L3.87 16L2.8 5.33L10.52 5.33Z" fill="#D4C17F" fill-opacity="1.000000" fill-rule="nonzero"/>
		<path d="M37.33 30.66C37.33 32.15 37.94 33.54 39.04 34.56C39.3 34.8 39.63 34.92 39.95 34.92C40.31 34.92 40.67 34.78 40.93 34.49C41.43 33.95 41.4 33.11 40.86 32.61C40.3 32.09 40 31.4 40 30.66C40 29.56 40.7 28.56 41.75 28.17C42.18 28.01 42.5 27.64 42.59 27.18C42.68 26.73 42.53 26.26 42.19 25.94C41.63 25.43 41.33 24.73 41.33 23.99C41.33 22.61 42.42 21.45 43.81 21.35C44.33 21.32 44.77 20.99 44.96 20.52C45.15 20.04 45.05 19.5 44.71 19.12C44.25 18.62 44 17.98 44 17.33C44 15.94 45.09 14.78 46.48 14.69C46.99 14.65 47.44 14.33 47.63 13.85C47.82 13.38 47.72 12.83 47.37 12.46C46.92 11.96 46.66 11.32 46.66 10.66C46.66 9.47 47.47 8.42 48.64 8.1C49 8 49.31 7.75 49.48 7.41C49.65 7.07 49.67 6.67 49.52 6.32C49.4 5.99 49.33 5.66 49.33 5.33C49.33 3.86 50.52 2.66 52 2.66C53.47 2.66 54.66 3.86 54.66 5.33C54.66 5.66 54.6 5.99 54.47 6.32C54.32 6.67 54.34 7.07 54.51 7.41C54.68 7.75 54.99 8 55.36 8.1C56.52 8.42 57.33 9.47 57.33 10.66C57.33 11.32 57.08 11.96 56.62 12.46C56.27 12.83 56.17 13.38 56.36 13.85C56.55 14.33 57 14.65 57.51 14.69C58.9 14.78 60 15.94 60 17.33C60 17.98 59.74 18.62 59.28 19.12C58.94 19.5 58.84 20.04 59.03 20.52C59.22 20.99 59.66 21.32 60.18 21.35C61.57 21.45 62.66 22.61 62.66 23.99C62.66 24.73 62.36 25.43 61.8 25.94C61.46 26.26 61.31 26.73 61.4 27.18C61.49 27.64 61.81 28.01 62.25 28.17C63.29 28.56 64 29.56 64 30.66C64 31.4 64.59 31.99 65.33 31.99C66.07 31.99 66.66 31.4 66.66 30.66C66.66 29.04 65.91 27.53 64.68 26.53C65.1 25.76 65.33 24.9 65.33 23.99C65.33 21.91 64.1 20.08 62.31 19.21C62.54 18.61 62.66 17.98 62.66 17.33C62.66 15.24 61.44 13.41 59.65 12.54C59.88 11.95 60 11.31 60 10.66C60 8.72 58.93 6.96 57.28 6.03C57.31 5.8 57.33 5.56 57.33 5.33C57.33 2.39 54.94 0 52 0C49.05 0 46.66 2.39 46.66 5.33C46.66 5.56 46.68 5.8 46.71 6.03C45.06 6.96 44 8.72 44 10.66C44 11.31 44.12 11.95 44.34 12.54C42.56 13.41 41.33 15.24 41.33 17.33C41.33 17.98 41.45 18.61 41.68 19.21C39.89 20.08 38.66 21.91 38.66 24C38.66 24.9 38.89 25.76 39.31 26.53C38.08 27.53 37.33 29.04 37.33 30.66Z" fill="#D4C17F" fill-opacity="1.000000" fill-rule="nonzero"/>
		<path d="M50.15 18.56C50.83 18.84 51.61 18.51 51.9 17.84C51.92 17.77 51.96 17.7 52 17.63C52.03 17.7 52.07 17.77 52.09 17.83C52.3 18.35 52.8 18.66 53.33 18.66C53.5 18.66 53.67 18.63 53.83 18.56C54.51 18.29 54.84 17.51 54.56 16.83C54.42 16.47 53.6 14.66 52 14.66C50.39 14.66 49.57 16.47 49.43 16.83C49.15 17.51 49.48 18.28 50.15 18.56Z" fill="#D4C17F" fill-opacity="1.000000" fill-rule="nonzero"/>
		<path d="M78.66 77.33L57.33 77.33C56.59 77.33 56 77.93 56 78.66C56 79.4 56.59 79.99 57.33 79.99L78.66 79.99C79.4 79.99 79.99 79.4 79.99 78.66C79.99 77.93 79.4 77.33 78.66 77.33Z" fill="#D4C17F" fill-opacity="1.000000" fill-rule="nonzero"/>
		<path d="M78.66 58.66L66.66 58.66L66.66 57.33C66.66 56.59 66.07 56 65.33 56C64.59 56 64 56.59 64 57.33L64 58.66L26.66 58.66L26.66 57.33C26.66 56.59 26.06 56 25.33 56C24.59 56 24 56.59 24 57.33L24 58.66L12 58.66C11.26 58.66 10.66 59.26 10.66 60L10.66 65.33C10.66 66.06 11.26 66.66 12 66.66L16 66.66L16 73.33C16 74.06 16.59 74.66 17.33 74.66C18.06 74.66 18.66 74.06 18.66 73.33L18.66 66.66L72 66.66L72 73.33C72 74.06 72.59 74.66 73.33 74.66C74.07 74.66 74.66 74.06 74.66 73.33L74.66 66.66L78.66 66.66C79.4 66.66 79.99 66.06 79.99 65.33L79.99 60C80 59.26 79.4 58.66 78.66 58.66ZM77.33 64L13.33 64L13.33 61.33L77.33 61.33L77.33 64Z" fill="#D4C17F" fill-opacity="1.000000" fill-rule="nonzero"/>
		<path d="M20 77.33L7.99 77.33L7.99 22.66C7.99 21.93 7.4 21.33 6.66 21.33C5.93 21.33 5.33 21.93 5.33 22.66L5.33 77.33L1.33 77.33C0.59 77.33 0 77.93 0 78.66C0 79.4 0.59 80 1.33 80L20 80C20.73 80 21.33 79.4 21.33 78.66C21.33 77.93 20.73 77.33 20 77.33Z" fill="#D4C17F" fill-opacity="1.000000" fill-rule="nonzero"/>
		<path d="M52 77.33L49.33 77.33C48.59 77.33 48 77.93 48 78.66C48 79.4 48.59 79.99 49.33 79.99L52 79.99C52.73 79.99 53.33 79.4 53.33 78.66C53.33 77.93 52.73 77.33 52 77.33Z" fill="#D4C17F" fill-opacity="1.000000" fill-rule="nonzero"/>
		<path d="M41.33 77.33L28 77.33C27.26 77.33 26.66 77.93 26.66 78.66C26.66 79.4 27.26 80 28 80L41.33 80C42.07 80 42.66 79.4 42.66 78.66C42.66 77.93 42.07 77.33 41.33 77.33Z" fill="#D4C17F" fill-opacity="1.000000" fill-rule="nonzero"/>
	</g>
</svg>
