<svg width="80.000000" height="79.000000" viewBox="0 0 80 79" fill="none" xmlns="http://www.w3.org/2000/svg" xmlns:xlink="http://www.w3.org/1999/xlink">
	<desc>
			Created with Pixso.
	</desc>
	<defs/>
	<path id="Vector" d="M53.38 3.62C53.57 3.62 53.75 3.58 53.93 3.5C54.31 3.33 54.7 3.17 55.09 3.02C55.78 2.76 56.12 1.99 55.86 1.3C55.6 0.61 54.83 0.27 54.14 0.52C53.7 0.69 53.27 0.87 52.84 1.07C52.17 1.37 51.86 2.16 52.17 2.83C52.39 3.32 52.87 3.62 53.38 3.62Z" fill="#D4C17F" fill-opacity="1.000000" fill-rule="nonzero"/>
	<path id="Vector" d="M53.33 32.53C54.07 32.53 54.66 31.94 54.66 31.2L54.66 30.97C54.66 30.62 54.68 30.27 54.73 29.94C54.82 29.2 54.31 28.54 53.58 28.44C52.83 28.34 52.18 28.86 52.08 29.59C52.03 30.04 51.99 30.5 51.99 30.97L51.99 31.2C52 31.94 52.59 32.53 53.33 32.53Z" fill="#D4C17F" fill-opacity="1.000000" fill-rule="nonzero"/>
	<path id="Vector" d="M46.66 32.86C47.4 32.86 47.99 32.26 47.99 31.53L47.99 30.17C47.99 29.44 47.4 28.84 46.66 28.84C45.92 28.84 45.33 29.44 45.33 30.17L45.33 31.53C45.33 32.26 45.92 32.86 46.66 32.86Z" fill="#D4C17F" fill-opacity="1.000000" fill-rule="nonzero"/>
	<path id="Vector" d="M54.32 11.77C53.89 12.01 53.47 12.26 53.06 12.53C52.45 12.94 52.29 13.77 52.7 14.38C52.95 14.77 53.38 14.98 53.81 14.98C54.06 14.98 54.32 14.9 54.55 14.75C54.89 14.52 55.24 14.31 55.6 14.11C56.25 13.75 56.48 12.94 56.13 12.3C55.77 11.65 54.96 11.42 54.32 11.77Z" fill="#D4C17F" fill-opacity="1.000000" fill-rule="nonzero"/>
	<path id="Vector" d="M35.41 11.64C35.66 12.04 36.09 12.26 36.54 12.26C36.78 12.26 37.02 12.2 37.24 12.06C37.87 11.66 38.06 10.84 37.66 10.22C37.41 9.82 37.15 9.43 36.88 9.04C36.45 8.44 35.62 8.3 35.02 8.73C34.42 9.16 34.28 10 34.71 10.59C34.95 10.93 35.18 11.28 35.41 11.64Z" fill="#D4C17F" fill-opacity="1.000000" fill-rule="nonzero"/>
	<path id="Vector" d="M59.78 1.82C59.84 1.82 59.9 1.81 59.95 1.81C60.36 1.75 60.78 1.71 61.2 1.68C61.94 1.64 62.49 1 62.44 0.27C62.4 -0.47 61.75 -1.02 61.03 -0.98C60.55 -0.94 60.08 -0.9 59.62 -0.84C58.89 -0.75 58.37 -0.08 58.46 0.65C58.55 1.32 59.12 1.82 59.78 1.82Z" fill="#D4C17F" fill-opacity="1.000000" fill-rule="nonzero"/>
	<path id="Vector" d="M54.84 23.72C54.34 24.26 54.37 25.1 54.91 25.6C55.17 25.84 55.49 25.96 55.82 25.96C56.18 25.96 56.53 25.81 56.8 25.53C57.07 25.23 57.38 24.95 57.7 24.69C58.28 24.23 58.38 23.39 57.92 22.82C57.46 22.24 56.62 22.14 56.04 22.6C55.61 22.94 55.21 23.32 54.84 23.72Z" fill="#D4C17F" fill-opacity="1.000000" fill-rule="nonzero"/>
	<path id="Vector" d="M42.75 12.06C42.97 12.2 43.21 12.26 43.45 12.26C43.9 12.26 44.33 12.04 44.58 11.64C44.81 11.28 45.04 10.93 45.28 10.59C45.71 10 45.57 9.16 44.97 8.73C44.37 8.3 43.54 8.44 43.11 9.04C42.84 9.43 42.58 9.82 42.33 10.22C41.94 10.84 42.12 11.66 42.75 12.06Z" fill="#D4C17F" fill-opacity="1.000000" fill-rule="nonzero"/>
	<path id="Vector" d="M53.33 38.97C54.07 38.97 54.66 38.37 54.66 37.64L54.66 36.97C54.66 36.23 54.07 35.64 53.33 35.64C52.59 35.64 52 36.23 52 36.97L52 37.64C52 38.37 52.59 38.97 53.33 38.97Z" fill="#D4C17F" fill-opacity="1.000000" fill-rule="nonzero"/>
	<path id="Vector" d="M46.63 26.09C46.7 26.1 46.76 26.1 46.82 26.1C47.47 26.1 48.04 25.61 48.14 24.94C48.19 24.53 48.26 24.13 48.35 23.73C48.52 23.01 48.07 22.3 47.35 22.13C46.63 21.97 45.92 22.42 45.75 23.14C45.65 23.62 45.56 24.1 45.49 24.59C45.39 25.32 45.91 25.99 46.63 26.09Z" fill="#D4C17F" fill-opacity="1.000000" fill-rule="nonzero"/>
	<path id="Vector" d="M37.56 16.17C37.69 16.57 37.81 16.97 37.92 17.37C38.08 17.97 38.62 18.36 39.21 18.36C39.32 18.36 39.44 18.34 39.56 18.31C39.72 18.26 39.87 18.18 39.99 18.09C40.12 18.19 40.27 18.27 40.43 18.31C40.55 18.34 40.67 18.36 40.78 18.36C41.37 18.36 41.91 17.97 42.07 17.37C42.18 16.97 42.3 16.57 42.43 16.17C42.67 15.48 42.3 14.72 41.6 14.48C40.96 14.26 40.29 14.58 39.99 15.17C39.7 14.58 39.03 14.26 38.39 14.48C37.69 14.72 37.32 15.48 37.56 16.17Z" fill="#D4C17F" fill-opacity="1.000000" fill-rule="nonzero"/>
	<path id="Vector" d="M47.78 7.2C48.09 7.2 48.4 7.1 48.66 6.88C48.97 6.6 49.3 6.34 49.63 6.08C50.21 5.63 50.32 4.8 49.87 4.21C49.42 3.63 48.58 3.52 48 3.97C47.63 4.26 47.26 4.55 46.91 4.86C46.35 5.35 46.29 6.19 46.78 6.75C47.04 7.05 47.41 7.2 47.78 7.2Z" fill="#D4C17F" fill-opacity="1.000000" fill-rule="nonzero"/>
	<path id="Vector" d="M48.82 16.54C48.52 16.93 48.25 17.33 47.99 17.74C47.59 18.36 47.78 19.19 48.4 19.58C48.62 19.72 48.87 19.79 49.11 19.79C49.56 19.79 49.99 19.57 50.24 19.16C50.46 18.81 50.7 18.47 50.95 18.14C51.39 17.55 51.27 16.72 50.68 16.27C50.1 15.83 49.26 15.95 48.82 16.54Z" fill="#D4C17F" fill-opacity="1.000000" fill-rule="nonzero"/>
	<path id="Vector" d="M61.3 9.69C60.8 9.73 60.32 9.78 59.84 9.86C59.11 9.98 58.62 10.67 58.74 11.4C58.85 12.05 59.41 12.51 60.06 12.51C60.13 12.51 60.2 12.51 60.27 12.5C60.68 12.43 61.09 12.38 61.5 12.35C62.24 12.29 62.79 11.65 62.73 10.91C62.67 10.18 62.05 9.63 61.3 9.69Z" fill="#D4C17F" fill-opacity="1.000000" fill-rule="nonzero"/>
	<path id="Vector" d="M66.23 1.92C66.65 1.98 67.06 2.06 67.47 2.15C67.56 2.17 67.66 2.18 67.75 2.18C68.37 2.18 68.92 1.76 69.06 1.13C69.21 0.41 68.76 -0.3 68.04 -0.45C67.58 -0.56 67.12 -0.64 66.65 -0.72C65.92 -0.84 65.24 -0.34 65.12 0.39C65.01 1.12 65.5 1.8 66.23 1.92Z" fill="#D4C17F" fill-opacity="1.000000" fill-rule="nonzero"/>
	<path id="Vector" d="M68.51 10.65C68.05 10.48 67.58 10.34 67.11 10.21C66.4 10.03 65.67 10.45 65.48 11.16C65.29 11.87 65.72 12.6 66.43 12.79C66.83 12.9 67.22 13.02 67.61 13.16C67.76 13.21 67.91 13.24 68.06 13.24C68.61 13.24 69.12 12.9 69.32 12.35C69.57 11.66 69.2 10.9 68.51 10.65Z" fill="#D4C17F" fill-opacity="1.000000" fill-rule="nonzero"/>
	<path id="Vector" d="M62.12 20.32C61.38 20.35 60.82 20.98 60.85 21.71C60.89 22.45 61.47 23.01 62.25 22.98C62.66 22.96 63.08 22.97 63.49 23.01C63.54 23.02 63.58 23.02 63.63 23.02C64.3 23.02 64.88 22.51 64.95 21.82C65.03 21.09 64.49 20.43 63.76 20.36C63.22 20.3 62.66 20.29 62.12 20.32Z" fill="#D4C17F" fill-opacity="1.000000" fill-rule="nonzero"/>
	<path id="Vector" d="M77.68 7.87C77.94 8.16 78.3 8.3 78.66 8.3C78.98 8.3 79.3 8.19 79.56 7.95C80.1 7.46 80.14 6.61 79.65 6.07C79.49 5.9 79.32 5.72 79.16 5.56C78.64 5.03 77.8 5.02 77.27 5.54C76.75 6.05 76.74 6.9 77.25 7.42C77.4 7.57 77.54 7.72 77.68 7.87Z" fill="#D4C17F" fill-opacity="1.000000" fill-rule="nonzero"/>
	<path id="Vector" d="M57.33 49.64L41.33 49.64C40.59 49.64 40 50.23 40 50.97C40 51.7 40.59 52.3 41.33 52.3L57.33 52.3C61.07 52.3 64 49.37 64 45.64L64 42.97C64 42.23 63.4 41.64 62.66 41.64L17.33 41.64C16.59 41.64 16 42.23 16 42.97L16 45.64C16 49.37 18.92 52.3 22.66 52.3L34.66 52.3L34.66 58.97C34.66 59.7 35.26 60.3 36 60.3C36.73 60.3 37.33 59.7 37.33 58.97L37.33 50.97C37.33 50.23 36.73 49.64 36 49.64L22.66 49.64C20.42 49.64 18.66 47.88 18.66 45.64L18.66 44.3L61.33 44.3L61.33 45.64C61.33 47.88 59.57 49.64 57.33 49.64Z" fill="#D4C17F" fill-opacity="1.000000" fill-rule="nonzero"/>
	<path id="Vector" d="M70.64 30.4C70.65 30.58 70.66 30.78 70.66 30.97C70.66 31.7 71.26 32.3 71.99 32.3C72.73 32.3 73.33 31.7 73.33 30.97C73.33 30.71 73.32 30.46 73.3 30.21C73.25 29.47 72.62 28.92 71.88 28.97C71.14 29.02 70.59 29.66 70.64 30.4Z" fill="#D4C17F" fill-opacity="1.000000" fill-rule="nonzero"/>
	<path id="Vector" d="M67.83 23.08C67.34 23.63 67.39 24.47 67.94 24.96C68.25 25.23 68.54 25.53 68.8 25.84C69.07 26.16 69.45 26.32 69.83 26.32C70.13 26.32 70.43 26.22 70.68 26.02C71.25 25.54 71.33 24.7 70.85 24.14C70.51 23.72 70.12 23.32 69.71 22.96C69.16 22.47 68.31 22.52 67.83 23.08Z" fill="#D4C17F" fill-opacity="1.000000" fill-rule="nonzero"/>
	<path id="Vector" d="M41.33 29.56C41.33 28.82 40.73 28.23 40 28.23C39.26 28.23 38.66 28.82 38.66 29.56L38.66 31.04C38.66 31.78 39.26 32.38 40 32.38C40.73 32.38 41.33 31.78 41.33 31.04L41.33 29.56Z" fill="#D4C17F" fill-opacity="1.000000" fill-rule="nonzero"/>
	<path id="Vector" d="M40 35.64C39.26 35.64 38.66 36.23 38.66 36.97L38.66 37.64C38.66 38.37 39.26 38.97 40 38.97C40.73 38.97 41.33 38.37 41.33 37.64L41.33 36.97C41.33 36.23 40.73 35.64 40 35.64Z" fill="#D4C17F" fill-opacity="1.000000" fill-rule="nonzero"/>
	<path id="Vector" d="M45.33 37.64C45.33 38.37 45.92 38.97 46.66 38.97C47.4 38.97 47.99 38.37 47.99 37.64L47.99 36.97C47.99 36.23 47.4 35.64 46.66 35.64C45.92 35.64 45.33 36.23 45.33 36.97L45.33 37.64Z" fill="#D4C17F" fill-opacity="1.000000" fill-rule="nonzero"/>
	<path id="Vector" d="M41.33 22.97C41.33 22.76 41.33 22.55 41.34 22.34C41.35 21.77 41.01 21.28 40.51 21.08C40.46 21.06 40.4 21.06 40.35 21.04C40.25 21.01 40.15 20.97 40.04 20.97C40.03 20.97 40.02 20.97 40 20.97C40 20.97 40 20.97 40 20.97C39.99 20.97 39.99 20.97 39.99 20.97C39.97 20.97 39.96 20.97 39.95 20.97C39.84 20.97 39.74 21.01 39.64 21.04C39.59 21.06 39.53 21.06 39.48 21.08C38.98 21.28 38.64 21.77 38.65 22.34C38.66 22.55 38.66 22.76 38.66 22.97L38.66 23.64C38.66 24.37 39.26 24.97 40 24.97C40.73 24.97 41.33 24.37 41.33 23.64L41.33 22.97Z" fill="#D4C17F" fill-opacity="1.000000" fill-rule="nonzero"/>
	<path id="Vector" d="M32 37.64C32 38.37 32.59 38.97 33.33 38.97C34.07 38.97 34.66 38.37 34.66 37.64L34.66 36.97C34.66 36.23 34.07 35.64 33.33 35.64C32.59 35.64 32 36.23 32 36.97L32 37.64Z" fill="#D4C17F" fill-opacity="1.000000" fill-rule="nonzero"/>
	<path id="Vector" d="M33.33 32.86C34.07 32.86 34.66 32.26 34.66 31.53L34.66 30.17C34.66 29.44 34.07 28.84 33.33 28.84C32.59 28.84 32 29.44 32 30.17L32 31.53C32 32.26 32.59 32.86 33.33 32.86Z" fill="#D4C17F" fill-opacity="1.000000" fill-rule="nonzero"/>
	<path id="Vector" d="M28 37.64L28 36.97C28 36.23 27.4 35.64 26.66 35.64C25.92 35.64 25.33 36.23 25.33 36.97L25.33 37.64C25.33 38.37 25.92 38.97 26.66 38.97C27.4 38.97 28 38.37 28 37.64Z" fill="#D4C17F" fill-opacity="1.000000" fill-rule="nonzero"/>
	<path id="Vector" d="M9.31 26.02C9.56 26.22 9.86 26.32 10.16 26.32C10.54 26.32 10.92 26.16 11.19 25.84C11.45 25.53 11.74 25.23 12.05 24.96C12.6 24.47 12.65 23.63 12.16 23.08C11.68 22.52 10.84 22.47 10.28 22.96C9.87 23.32 9.48 23.72 9.13 24.14C8.66 24.7 8.74 25.54 9.31 26.02Z" fill="#D4C17F" fill-opacity="1.000000" fill-rule="nonzero"/>
	<path id="Vector" d="M73.33 62.97L45.33 62.97L45.33 56.3C45.33 55.57 44.73 54.97 44 54.97C43.26 54.97 42.66 55.57 42.66 56.3L42.66 64.3C42.66 65.04 43.26 65.64 44 65.64L72 65.64L72 72.3C72 74.51 70.2 76.3 68 76.3L12 76.3C9.79 76.3 8 74.51 8 72.3L8 65.64L38.77 65.64C39.51 65.64 40.11 65.04 40.11 64.3C40.11 63.57 39.51 62.97 38.77 62.97L6.66 62.97C5.92 62.97 5.33 63.57 5.33 64.3L5.33 72.3C5.33 75.98 8.32 78.97 12 78.97L68 78.97C71.67 78.97 74.66 75.98 74.66 72.3L74.66 64.3C74.66 63.57 74.07 62.97 73.33 62.97Z" fill="#D4C17F" fill-opacity="1.000000" fill-rule="nonzero"/>
	<path id="Vector" d="M32 69.64L32 72.3C32 73.04 32.59 73.64 33.33 73.64C34.07 73.64 34.66 73.04 34.66 72.3L34.66 69.64C34.66 68.9 34.07 68.3 33.33 68.3C32.59 68.3 32 68.9 32 69.64Z" fill="#D4C17F" fill-opacity="1.000000" fill-rule="nonzero"/>
	<path id="Vector" d="M1.39 24.97C1.37 24.97 1.36 24.97 1.34 24.97C0.63 24.97 0.03 25.54 0.01 26.26C0 26.49 0 26.73 0 26.97C0 27.7 0.59 28.3 1.33 28.3C2.07 28.3 2.66 27.7 2.66 26.97C2.66 26.76 2.67 26.56 2.67 26.35C2.7 25.61 2.12 25 1.39 24.97Z" fill="#D4C17F" fill-opacity="1.000000" fill-rule="nonzero"/>
	<path id="Vector" d="M7.15 16.41C7.45 16.12 7.76 15.85 8.08 15.58C8.65 15.12 8.73 14.28 8.27 13.71C7.8 13.14 6.96 13.05 6.39 13.52C6.01 13.83 5.65 14.15 5.3 14.49C4.77 15 4.75 15.85 5.26 16.38C5.52 16.65 5.87 16.78 6.22 16.78C6.56 16.78 6.89 16.66 7.15 16.41Z" fill="#D4C17F" fill-opacity="1.000000" fill-rule="nonzero"/>
	<path id="Vector" d="M3.62 18.6C2.97 18.27 2.16 18.53 1.83 19.19C1.62 19.63 1.41 20.07 1.23 20.53C0.96 21.21 1.29 21.99 1.97 22.26C2.14 22.33 2.3 22.36 2.47 22.36C3 22.36 3.5 22.04 3.71 21.52C3.86 21.13 4.03 20.76 4.22 20.39C4.55 19.73 4.28 18.93 3.62 18.6Z" fill="#D4C17F" fill-opacity="1.000000" fill-rule="nonzero"/>
	<path id="Vector" d="M6.02 4.56C6.25 4.56 6.48 4.5 6.69 4.38C7.05 4.17 7.42 3.98 7.79 3.79C8.45 3.47 8.72 2.67 8.4 2.01C8.07 1.35 7.27 1.08 6.61 1.4C6.19 1.61 5.77 1.83 5.36 2.07C4.72 2.44 4.5 3.25 4.87 3.89C5.12 4.32 5.56 4.56 6.02 4.56Z" fill="#D4C17F" fill-opacity="1.000000" fill-rule="nonzero"/>
	<path id="Vector" d="M18.66 69.64L18.66 72.3C18.66 73.04 19.26 73.64 20 73.64C20.73 73.64 21.33 73.04 21.33 72.3L21.33 69.64C21.33 68.9 20.73 68.3 20 68.3C19.26 68.3 18.66 68.9 18.66 69.64Z" fill="#D4C17F" fill-opacity="1.000000" fill-rule="nonzero"/>
	<path id="Vector" d="M78.02 22.26C78.7 21.99 79.03 21.21 78.76 20.53C78.58 20.07 78.37 19.63 78.16 19.19C77.83 18.53 77.03 18.27 76.37 18.6C75.71 18.93 75.44 19.73 75.77 20.39C75.96 20.76 76.13 21.13 76.28 21.52C76.49 22.04 76.99 22.36 77.52 22.36C77.69 22.36 77.85 22.33 78.02 22.26Z" fill="#D4C17F" fill-opacity="1.000000" fill-rule="nonzero"/>
	<path id="Vector" d="M79.98 26.26C79.96 25.52 79.3 24.93 78.6 24.97C77.87 25 77.29 25.61 77.32 26.35C77.32 26.56 77.33 26.76 77.33 26.97C77.33 27.7 77.92 28.3 78.66 28.3C79.4 28.3 79.99 27.7 79.99 26.97C79.99 26.73 79.99 26.49 79.98 26.26Z" fill="#D4C17F" fill-opacity="1.000000" fill-rule="nonzero"/>
	<path id="Vector" d="M74.63 2.07C74.22 1.83 73.8 1.61 73.38 1.4C72.72 1.08 71.92 1.35 71.59 2.01C71.27 2.67 71.54 3.47 72.2 3.79C72.57 3.98 72.94 4.17 73.3 4.38C73.51 4.5 73.74 4.56 73.96 4.56C74.43 4.56 74.87 4.32 75.12 3.89C75.49 3.25 75.27 2.44 74.63 2.07Z" fill="#D4C17F" fill-opacity="1.000000" fill-rule="nonzero"/>
	<path id="Vector" d="M61.33 72.3L61.33 69.64C61.33 68.9 60.73 68.3 60 68.3C59.26 68.3 58.66 68.9 58.66 69.64L58.66 72.3C58.66 73.04 59.26 73.64 60 73.64C60.73 73.64 61.33 73.04 61.33 72.3Z" fill="#D4C17F" fill-opacity="1.000000" fill-rule="nonzero"/>
	<path id="Vector" d="M48 72.3L48 69.64C48 68.9 47.4 68.3 46.66 68.3C45.92 68.3 45.33 68.9 45.33 69.64L45.33 72.3C45.33 73.04 45.92 73.64 46.66 73.64C47.4 73.64 48 73.04 48 72.3Z" fill="#D4C17F" fill-opacity="1.000000" fill-rule="nonzero"/>
	<path id="Vector" d="M73.6 13.52C73.03 13.05 72.19 13.14 71.72 13.71C71.26 14.28 71.34 15.12 71.91 15.58C72.23 15.85 72.54 16.12 72.84 16.41C73.1 16.66 73.43 16.78 73.77 16.78C74.12 16.78 74.46 16.65 74.73 16.38C75.24 15.85 75.22 15 74.69 14.49C74.34 14.15 73.98 13.83 73.6 13.52Z" fill="#D4C17F" fill-opacity="1.000000" fill-rule="nonzero"/>
	<path id="Vector" d="M8.11 28.97C7.35 28.92 6.74 29.47 6.69 30.21C6.67 30.46 6.66 30.71 6.66 30.97C6.66 31.7 7.26 32.3 8 32.3C8.73 32.3 9.33 31.7 9.33 30.97C9.33 30.78 9.34 30.58 9.35 30.4C9.4 29.66 8.85 29.02 8.11 28.97Z" fill="#D4C17F" fill-opacity="1.000000" fill-rule="nonzero"/>
	<path id="Vector" d="M26.41 28.44C25.68 28.54 25.17 29.2 25.26 29.94C25.31 30.27 25.33 30.62 25.33 30.97L25.33 31.2C25.33 31.94 25.92 32.53 26.66 32.53C27.4 32.53 27.99 31.94 27.99 31.2L27.99 30.97C27.99 30.5 27.97 30.04 27.91 29.59C27.81 28.86 27.15 28.34 26.41 28.44Z" fill="#D4C17F" fill-opacity="1.000000" fill-rule="nonzero"/>
	<path id="Vector" d="M24.9 3.02C25.29 3.17 25.68 3.33 26.06 3.5C26.24 3.58 26.42 3.62 26.61 3.62C27.12 3.62 27.6 3.32 27.82 2.83C28.13 2.16 27.82 1.37 27.15 1.07C26.72 0.87 26.29 0.69 25.85 0.52C25.16 0.27 24.39 0.61 24.13 1.3C23.87 1.99 24.21 2.76 24.9 3.02Z" fill="#D4C17F" fill-opacity="1.000000" fill-rule="nonzero"/>
	<path id="Vector" d="M24.39 14.11C24.75 14.31 25.1 14.52 25.44 14.75C25.67 14.9 25.93 14.98 26.18 14.98C26.61 14.98 27.04 14.77 27.29 14.38C27.7 13.77 27.54 12.94 26.93 12.53C26.52 12.26 26.1 12.01 25.67 11.77C25.03 11.42 24.22 11.65 23.86 12.3C23.51 12.94 23.74 13.75 24.39 14.11Z" fill="#D4C17F" fill-opacity="1.000000" fill-rule="nonzero"/>
	<path id="Vector" d="M1.33 8.3C1.69 8.3 2.05 8.16 2.31 7.87C2.45 7.72 2.59 7.57 2.74 7.42C3.25 6.9 3.24 6.05 2.71 5.54C2.19 5.02 1.35 5.03 0.83 5.56C0.67 5.72 0.5 5.9 0.34 6.07C-0.15 6.61 -0.11 7.46 0.43 7.95C0.69 8.19 1.01 8.3 1.33 8.3Z" fill="#D4C17F" fill-opacity="1.000000" fill-rule="nonzero"/>
	<path id="Vector" d="M22.29 24.69C22.61 24.95 22.92 25.23 23.2 25.53C23.46 25.81 23.82 25.96 24.17 25.96C24.5 25.96 24.82 25.84 25.08 25.6C25.62 25.1 25.65 24.26 25.15 23.72C24.78 23.32 24.38 22.94 23.95 22.6C23.37 22.14 22.53 22.24 22.07 22.82C21.61 23.39 21.71 24.23 22.29 24.69Z" fill="#D4C17F" fill-opacity="1.000000" fill-rule="nonzero"/>
	<path id="Vector" d="M29.75 19.16C30 19.57 30.44 19.79 30.88 19.79C31.12 19.79 31.37 19.72 31.59 19.58C32.21 19.19 32.4 18.36 32 17.74C31.74 17.33 31.47 16.93 31.17 16.54C30.73 15.95 29.9 15.83 29.31 16.27C28.72 16.72 28.6 17.55 29.04 18.14C29.29 18.47 29.53 18.81 29.75 19.16Z" fill="#D4C17F" fill-opacity="1.000000" fill-rule="nonzero"/>
	<path id="Vector" d="M30.36 6.08C30.7 6.34 31.02 6.6 31.34 6.88C31.59 7.1 31.9 7.2 32.21 7.2C32.58 7.2 32.95 7.05 33.22 6.75C33.7 6.19 33.64 5.35 33.08 4.86C32.73 4.55 32.36 4.26 31.99 3.97C31.41 3.52 30.57 3.63 30.12 4.21C29.67 4.8 29.78 5.63 30.36 6.08Z" fill="#D4C17F" fill-opacity="1.000000" fill-rule="nonzero"/>
	<path id="Vector" d="M12.24 2.18C12.33 2.18 12.43 2.17 12.52 2.15C12.93 2.06 13.34 1.98 13.76 1.92C14.49 1.8 14.98 1.12 14.87 0.39C14.75 -0.34 14.07 -0.84 13.34 -0.72C12.87 -0.64 12.41 -0.56 11.95 -0.45C11.23 -0.3 10.78 0.41 10.94 1.13C11.07 1.76 11.62 2.18 12.24 2.18Z" fill="#D4C17F" fill-opacity="1.000000" fill-rule="nonzero"/>
	<path id="Vector" d="M18.79 1.68C19.21 1.71 19.63 1.75 20.04 1.81C20.1 1.81 20.15 1.82 20.21 1.82C20.87 1.82 21.44 1.32 21.53 0.65C21.62 -0.08 21.1 -0.75 20.37 -0.84C19.91 -0.9 19.44 -0.94 18.97 -0.98C18.25 -1.03 17.59 -0.47 17.55 0.27C17.5 1 18.05 1.64 18.79 1.68Z" fill="#D4C17F" fill-opacity="1.000000" fill-rule="nonzero"/>
	<path id="Vector" d="M32.64 22.13C31.92 22.3 31.47 23.01 31.63 23.73C31.73 24.13 31.8 24.53 31.85 24.94C31.95 25.61 32.52 26.1 33.18 26.1C33.24 26.1 33.3 26.1 33.36 26.09C34.08 25.99 34.6 25.32 34.5 24.59C34.43 24.1 34.34 23.62 34.24 23.14C34.07 22.42 33.36 21.97 32.64 22.13Z" fill="#D4C17F" fill-opacity="1.000000" fill-rule="nonzero"/>
	<path id="Vector" d="M11.93 13.24C12.08 13.24 12.23 13.21 12.38 13.16C12.77 13.02 13.16 12.9 13.56 12.79C14.27 12.6 14.7 11.87 14.51 11.16C14.32 10.45 13.59 10.03 12.88 10.21C12.41 10.34 11.94 10.48 11.48 10.65C10.79 10.9 10.42 11.66 10.67 12.35C10.87 12.9 11.38 13.24 11.93 13.24Z" fill="#D4C17F" fill-opacity="1.000000" fill-rule="nonzero"/>
	<path id="Vector" d="M18.49 12.35C18.9 12.38 19.31 12.43 19.72 12.5C19.79 12.51 19.86 12.51 19.94 12.51C20.58 12.51 21.14 12.05 21.25 11.4C21.37 10.67 20.88 9.98 20.15 9.86C19.67 9.78 19.19 9.73 18.69 9.69C17.97 9.62 17.32 10.18 17.26 10.91C17.2 11.65 17.75 12.29 18.49 12.35Z" fill="#D4C17F" fill-opacity="1.000000" fill-rule="nonzero"/>
	<path id="Vector" d="M16.36 23.02C16.41 23.02 16.46 23.02 16.5 23.01C16.91 22.97 17.33 22.96 17.74 22.98C18.51 23.01 19.1 22.45 19.14 21.71C19.17 20.98 18.61 20.35 17.87 20.32C17.33 20.29 16.77 20.3 16.23 20.36C15.5 20.43 14.96 21.09 15.04 21.82C15.11 22.51 15.69 23.02 16.36 23.02Z" fill="#D4C17F" fill-opacity="1.000000" fill-rule="nonzero"/>
</svg>
