<svg width="37.000000" height="20.000000" viewBox="0 0 37 20" fill="none" xmlns="http://www.w3.org/2000/svg" xmlns:xlink="http://www.w3.org/1999/xlink">
	<desc>
			Created with Pixso.
	</desc>
	<defs/>
	<path d="M36.48 18.06C36.43 17.97 36.39 17.89 36.35 17.83C35.7 16.73 34.46 15.39 32.63 13.8L32.59 13.76L32.57 13.74L32.55 13.72L32.53 13.72C31.7 12.98 31.18 12.48 30.96 12.23C30.55 11.74 30.46 11.25 30.68 10.75C30.84 10.37 31.42 9.57 32.44 8.36C32.97 7.71 33.39 7.19 33.7 6.81C35.95 4.01 36.92 2.22 36.62 1.44L36.51 1.26C36.43 1.15 36.23 1.05 35.9 0.96C35.58 0.86 35.16 0.85 34.66 0.91L29.05 0.95C28.96 0.92 28.83 0.92 28.66 0.96C28.49 0.99 28.41 1.01 28.41 1.01L28.31 1.06L28.23 1.11C28.17 1.15 28.1 1.21 28.02 1.3C27.94 1.39 27.87 1.5 27.82 1.62C27.21 3.09 26.52 4.46 25.74 5.73C25.26 6.48 24.82 7.14 24.41 7.69C24.01 8.24 23.67 8.65 23.4 8.91C23.13 9.18 22.88 9.38 22.66 9.54C22.44 9.7 22.27 9.77 22.16 9.74C22.04 9.72 21.93 9.7 21.82 9.67C21.64 9.56 21.5 9.41 21.39 9.22C21.28 9.04 21.2 8.8 21.16 8.51C21.12 8.23 21.1 7.98 21.09 7.77C21.09 7.57 21.09 7.27 21.1 6.9C21.12 6.52 21.12 6.26 21.12 6.13C21.12 5.67 21.13 5.17 21.15 4.62C21.17 4.08 21.19 3.65 21.2 3.34C21.22 3.02 21.22 2.69 21.22 2.33C21.22 1.98 21.2 1.7 21.15 1.5C21.11 1.3 21.04 1.11 20.95 0.92C20.86 0.73 20.72 0.58 20.55 0.48C20.37 0.38 20.16 0.3 19.9 0.23C19.21 0.09 18.33 0.01 17.27 0C14.85 -0.03 13.3 0.12 12.61 0.44C12.34 0.57 12.1 0.75 11.87 0.98C11.64 1.25 11.61 1.4 11.78 1.42C12.56 1.53 13.11 1.79 13.43 2.21L13.55 2.42C13.64 2.58 13.73 2.86 13.82 3.26C13.91 3.67 13.97 4.11 14 4.6C14.06 5.48 14.06 6.25 14 6.88C13.93 7.51 13.87 8 13.81 8.36C13.75 8.71 13.67 9 13.55 9.21C13.43 9.43 13.35 9.57 13.32 9.62C13.28 9.66 13.24 9.69 13.22 9.71C13.05 9.77 12.87 9.8 12.69 9.8C12.51 9.8 12.29 9.71 12.03 9.54C11.77 9.37 11.5 9.14 11.22 8.84C10.94 8.54 10.63 8.13 10.28 7.59C9.93 7.05 9.56 6.42 9.19 5.69L8.88 5.16C8.68 4.82 8.41 4.33 8.08 3.67C7.74 3.02 7.44 2.39 7.18 1.79C7.08 1.53 6.92 1.34 6.71 1.2L6.62 1.15C6.55 1.1 6.45 1.05 6.31 0.99C6.16 0.94 6.01 0.9 5.86 0.87L0.52 0.91C-0.02 0.91 -0.39 1.03 -0.59 1.26L-0.67 1.37C-0.71 1.43 -0.72 1.52 -0.72 1.66C-0.72 1.79 -0.69 1.96 -0.61 2.15C0.17 3.87 1.02 5.52 1.93 7.12C2.85 8.71 3.64 9.99 4.32 10.97C4.99 11.94 5.68 12.86 6.38 13.72C7.08 14.59 7.55 15.14 7.78 15.38C8 15.63 8.18 15.81 8.31 15.93L8.8 16.37C9.11 16.66 9.57 17.01 10.17 17.42C10.77 17.83 11.44 18.23 12.18 18.62C12.91 19.02 13.76 19.34 14.74 19.59C15.71 19.84 16.66 19.94 17.58 19.89L19.82 19.89C20.27 19.85 20.62 19.72 20.85 19.49L20.93 19.4C20.98 19.33 21.03 19.21 21.08 19.06C21.12 18.91 21.14 18.74 21.14 18.56C21.13 18.04 21.17 17.56 21.27 17.14C21.37 16.72 21.48 16.41 21.6 16.2C21.72 15.98 21.86 15.8 22.02 15.66C22.18 15.51 22.29 15.42 22.35 15.39C22.42 15.36 22.47 15.34 22.51 15.33C22.82 15.23 23.18 15.33 23.61 15.61C24.03 15.9 24.42 16.25 24.79 16.67C25.16 17.09 25.61 17.56 26.13 18.08C26.65 18.61 27.1 19 27.49 19.25L27.88 19.47C28.14 19.62 28.48 19.75 28.89 19.87C29.31 20 29.67 20.03 29.98 19.96L34.97 19.89C35.46 19.89 35.85 19.82 36.12 19.66C36.39 19.51 36.55 19.34 36.61 19.16C36.66 18.98 36.66 18.77 36.61 18.54C36.57 18.31 36.52 18.15 36.48 18.06Z" fill="#FFFFFF" fill-opacity="1.000000" fill-rule="nonzero"/>
</svg>
