<svg width="21.000000" height="21.000000" viewBox="0 0 21 21" fill="none" xmlns="http://www.w3.org/2000/svg" xmlns:xlink="http://www.w3.org/1999/xlink">
	<desc>
			Created with Pixso.
	</desc>
	<defs>
		<clipPath id="clip1_41">
			<rect width="21.000000" height="21.000000" fill="white" fill-opacity="0"/>
		</clipPath>
	</defs>
	<rect width="21.000000" height="21.000000" fill="#FFFFFF" fill-opacity="0"/>
	<g clip-path="url(#clip1_41)">
		<path d="M20.98 17.28C20.91 16.77 20.62 16.34 20.18 16.09L15 13.1C14.37 12.74 13.56 12.84 13.04 13.36L12.02 14.38C11.75 14.65 11.32 14.68 11.02 14.44C10.22 13.79 9.43 13.08 8.67 12.32C7.91 11.56 7.2 10.77 6.55 9.97C6.31 9.67 6.34 9.24 6.61 8.97L7.63 7.95C8.15 7.43 8.25 6.62 7.89 5.99L4.91 0.81C4.65 0.37 4.22 0.08 3.71 0.01C3.21 -0.06 2.71 0.11 2.35 0.47L0.81 2.01C-0.26 3.08 -0.28 5.04 0.76 7.54C1.77 9.93 3.64 12.57 6.03 14.96C8.42 17.35 11.06 19.22 13.45 20.23C14.68 20.74 15.78 20.99 16.71 20.99C17.66 20.99 18.44 20.72 18.98 20.18L20.52 18.64C20.88 18.28 21.05 17.78 20.98 17.28ZM14.66 13.69L19.84 16.67C20.1 16.82 20.27 17.08 20.31 17.37C20.34 17.61 20.28 17.86 20.13 18.05L13.25 14.12L13.53 13.84C13.83 13.54 14.29 13.48 14.66 13.69ZM3.62 0.68C3.92 0.72 4.17 0.89 4.32 1.15L7.3 6.33C7.51 6.7 7.45 7.16 7.15 7.47L6.89 7.72L2.94 0.86C3.1 0.74 3.29 0.68 3.5 0.68C3.54 0.68 3.58 0.68 3.62 0.68ZM18.5 19.7C17.65 20.55 15.9 20.51 13.72 19.6C11.4 18.63 8.84 16.81 6.51 14.48C4.18 12.15 2.36 9.59 1.39 7.27C0.48 5.09 0.44 3.34 1.29 2.49L2.44 1.35L6.39 8.22L6.13 8.49C5.61 9 5.56 9.82 6.02 10.39C6.69 11.22 7.41 12.03 8.19 12.8C8.96 13.58 9.77 14.3 10.6 14.97C11.17 15.43 11.99 15.38 12.5 14.86L12.75 14.62L19.64 18.56L18.5 19.7Z" fill="#FFFFFF" fill-opacity="1.000000" fill-rule="nonzero"/>
	</g>
</svg>
