<svg width="178.000000" height="66.000000" viewBox="0 0 178 66" fill="none" xmlns="http://www.w3.org/2000/svg" xmlns:xlink="http://www.w3.org/1999/xlink">
	<desc>
			Created with Pixso.
	</desc>
	<defs/>
	<path id="LoftHouse" d="M48.83 15.36L53.23 15.36L53.23 17.92L48.83 17.92L48.83 35L45.81 35L45.81 17.92L42.65 17.92L42.65 15.36L45.81 15.36L45.81 12.64C45.81 9.27 48.53 7.58 51.34 7.58C52.82 7.58 53.74 7.89 54.2 8.1L53.33 10.7C53.03 10.61 52.52 10.39 51.65 10.39C49.65 10.39 48.83 11.42 48.83 13.37L48.83 15.36ZM18.5 35L3.17 35L3.17 8.81L6.33 8.81L6.33 32.18L18.5 32.18L18.5 35ZM74.55 35L71.38 35L71.38 8.81L74.55 8.81L74.55 20.48L88.51 20.48L88.51 8.81L91.69 8.81L91.69 35L88.51 35L88.51 23.29L74.55 23.29L74.55 35ZM61.82 15.36L66.01 15.36L66.01 17.92L61.82 17.92L61.82 29.37C61.82 31.93 63.1 32.33 64.42 32.33C65.09 32.33 65.5 32.24 65.76 32.18L66.37 34.89C65.96 35.05 65.25 35.25 64.12 35.25C61.57 35.25 58.8 33.62 58.8 30.19L58.8 17.92L55.84 17.92L55.84 15.36L58.8 15.36L58.8 10.66L61.82 10.66L61.82 15.36ZM39.88 25.28C39.88 31.37 36.3 35.41 30.99 35.41C25.67 35.41 22.08 31.37 22.08 25.28C22.08 19.14 25.67 15.11 30.99 15.11C36.3 15.11 39.88 19.14 39.88 25.28ZM114.49 25.28C114.49 31.37 110.91 35.41 105.59 35.41C100.28 35.41 96.69 31.37 96.69 25.28C96.69 19.14 100.28 15.11 105.59 15.11C110.91 15.11 114.49 19.14 114.49 25.28ZM146.96 15.11C150.85 15.11 152.97 16.97 153.92 19.75L151.2 20.52C150.68 19.17 149.59 17.71 146.96 17.71C144.56 17.71 142.77 18.94 142.77 20.62C142.77 22.14 143.82 22.91 146.14 23.49L149.06 24.2C152.56 25.06 154.27 26.79 154.27 29.52C154.27 32.91 151.17 35.41 146.61 35.41C142.59 35.41 139.84 33.62 139.14 30.29L142 29.57C142.54 31.68 144.08 32.75 146.55 32.75C149.37 32.75 151.16 31.37 151.16 29.68C151.16 28.32 150.22 27.37 148.24 26.92L144.97 26.14C141.36 25.3 139.75 23.49 139.75 20.78C139.75 17.45 142.82 15.11 146.96 15.11ZM174.88 30.44C173.96 33.41 171.05 35.41 167.06 35.41C161.38 35.41 157.9 31.37 157.9 25.33C157.9 19.3 161.43 15.11 166.75 15.11C170.84 15.11 175.19 17.61 175.19 24.92L175.19 26.2L160.93 26.2C161.07 30.41 163.52 32.69 167.06 32.69C169.42 32.69 171.2 31.67 171.96 29.62L174.88 30.44ZM126.4 32.33C128.65 32.33 131.47 30.64 131.47 26.97L131.47 15.36L134.48 15.36L134.48 35L131.47 35L131.47 31.67L131.26 31.67C130.34 33.67 128.4 35.25 125.44 35.25C121.75 35.25 119.09 32.85 119.09 27.83L119.09 15.36L122.11 15.36L122.11 27.63C122.11 30.5 123.9 32.33 126.4 32.33ZM25.11 25.28C25.11 29.22 26.94 32.69 30.99 32.69C35.02 32.69 36.87 29.22 36.87 25.28C36.87 21.35 35.02 17.81 30.99 17.81C26.94 17.81 25.11 21.35 25.11 25.28ZM99.71 25.28C99.71 29.22 101.55 32.69 105.59 32.69C109.63 32.69 111.47 29.22 111.47 25.28C111.47 21.35 109.63 17.81 105.59 17.81C101.55 17.81 99.71 21.35 99.71 25.28ZM166.75 17.81C163.3 17.81 161.13 20.54 160.93 23.6L172.12 23.6C172.12 20.26 170.02 17.81 166.75 17.81Z" fill="#FFFFFF" fill-opacity="1.000000" fill-rule="evenodd"/>
	<path id="ЖИЛОЙ КОМПЛЕКС" d="M49.56 55.06Q50.02 54.6 50.09 53.76L49.1 53.76Q49.04 54.39 48.72 54.62Q48.4 54.86 47.85 54.86Q47.23 54.86 46.95 54.63Q46.66 54.41 46.6 53.76L45.62 53.76Q45.68 54.67 46.17 55.13Q46.65 55.59 47.83 55.59Q48.97 55.59 49.49 55.12Q49.52 55.09 49.56 55.06ZM40.46 63.02Q40.91 62.03 40.91 60.7Q40.91 59.37 40.46 58.38Q40.17 57.73 39.69 57.27Q39.44 57.03 39.14 56.84Q38.26 56.29 36.98 56.29Q35.64 56.29 34.75 56.85Q34.4 57.07 34.12 57.36Q33.7 57.79 33.44 58.38Q33.01 59.37 33.01 60.69Q33.01 62.02 33.44 63.01Q33.71 63.63 34.15 64.08Q34.42 64.35 34.75 64.56Q35.64 65.12 36.97 65.12Q38.26 65.12 39.14 64.56Q39.45 64.37 39.71 64.11Q40.17 63.66 40.46 63.02ZM75.36 63.02Q75.81 62.03 75.81 60.7Q75.81 59.37 75.36 58.38Q75.07 57.73 74.59 57.27Q74.34 57.03 74.04 56.84Q73.16 56.29 71.88 56.29Q70.53 56.29 69.65 56.85Q69.3 57.07 69.02 57.36Q68.6 57.79 68.34 58.38Q67.91 59.37 67.91 60.69Q67.91 62.02 68.34 63.01Q68.61 63.63 69.05 64.08Q69.32 64.35 69.65 64.56Q70.53 65.12 71.87 65.12Q73.16 65.12 74.04 64.56Q74.35 64.37 74.61 64.11Q75.07 63.66 75.36 63.02ZM130.43 57.67Q131.09 57.25 132.02 57.25Q132.6 57.25 133.08 57.4Q133.57 57.54 133.97 57.72L134.4 56.81Q133.39 56.31 132.03 56.31Q130.71 56.31 129.79 56.87Q129.38 57.11 129.06 57.44Q128.65 57.86 128.39 58.41Q127.92 59.4 127.92 60.7Q127.92 62.04 128.36 63.04Q128.64 63.69 129.12 64.15Q129.37 64.39 129.67 64.58Q130.55 65.12 131.85 65.12Q132.56 65.12 133.07 65.03Q133.39 64.98 133.7 64.89Q133.88 64.83 134.06 64.77L134.06 63.83Q133.58 63.98 133.08 64.07Q132.57 64.17 132.01 64.17Q130.87 64.17 130.17 63.61Q129.96 63.45 129.8 63.24Q129.06 62.31 129.06 60.71Q129.06 59.1 129.85 58.18Q130.11 57.88 130.43 57.67ZM0.13 56.43L3.45 60.59L0.01 65L1.24 65L4.6 60.65L4.6 65L5.63 65L5.63 60.65L8.98 65L10.22 65L6.79 60.58L10.11 56.43L8.91 56.43L5.63 60.58L5.63 56.43L4.6 56.43L4.6 60.58L1.33 56.43L0.13 56.43ZM13.87 56.43L12.86 56.43L12.86 65L14.06 65L18.79 57.87L18.83 57.87Q18.82 58.05 18.8 58.47Q18.78 58.89 18.76 59.39Q18.74 59.89 18.74 60.34L18.74 65L19.75 65L19.75 56.43L18.55 56.43L13.83 63.52L13.78 63.52Q13.81 63.33 13.82 62.92Q13.84 62.51 13.85 62.02Q13.87 61.53 13.87 61.13L13.87 56.43ZM28.59 65L29.67 65L29.67 56.43L24.98 56.43Q24.81 57.76 24.65 58.94Q24.49 60.11 24.35 60.99Q24.21 61.87 24.11 62.33Q24.03 62.76 23.91 63.2Q23.79 63.64 23.58 63.93Q23.48 64.08 23.33 64.15Q23.19 64.23 23.01 64.23Q22.82 64.23 22.65 64.19Q22.48 64.14 22.35 64.08L22.35 64.98Q22.51 65.04 22.72 65.08Q22.93 65.13 23.13 65.13Q23.74 65.13 24.12 64.84Q24.5 64.55 24.73 63.99Q24.96 63.42 25.11 62.62Q25.24 62 25.37 61.11Q25.51 60.22 25.64 59.24Q25.77 58.26 25.88 57.37L28.59 57.37L28.59 65ZM45.27 56.43L44.26 56.43L44.26 65L45.46 65L50.19 57.87L50.24 57.87Q50.23 58.05 50.2 58.47Q50.18 58.89 50.16 59.39Q50.14 59.89 50.14 60.34L50.14 65L51.15 65L51.15 56.43L49.95 56.43L45.23 63.52L45.19 63.52Q45.21 63.33 45.23 62.92Q45.25 62.51 45.26 62.02Q45.27 61.53 45.27 61.13L45.27 56.43ZM64.68 65L65.97 65L62.09 60.59L65.81 56.43L64.58 56.43L60.8 60.58L60.8 56.43L59.72 56.43L59.72 65L60.8 65L60.8 60.65L64.68 65ZM80.11 57.48L82.93 65L83.82 65L86.67 57.5L86.72 57.5Q86.7 57.88 86.67 58.49Q86.64 59.1 86.64 59.73L86.64 65L87.71 65L87.71 56.43L86.12 56.43L83.44 63.45L83.39 63.45L80.75 56.43L79.15 56.43L79.15 65L80.15 65L80.15 59.8Q80.15 59.12 80.12 58.49Q80.1 57.86 80.06 57.48L80.11 57.48ZM91.47 56.43L91.47 65L92.55 65L92.55 57.37L96.84 57.37L96.84 65L97.91 65L97.91 56.43L91.47 56.43ZM106.77 65L107.86 65L107.86 56.43L103.16 56.43Q103 57.76 102.83 58.94Q102.67 60.11 102.53 60.99Q102.39 61.87 102.3 62.33Q102.22 62.76 102.1 63.2Q101.98 63.64 101.76 63.93Q101.66 64.08 101.52 64.15Q101.37 64.23 101.19 64.23Q101 64.23 100.83 64.19Q100.67 64.14 100.53 64.08L100.53 64.98Q100.69 65.04 100.9 65.08Q101.11 65.13 101.31 65.13Q101.93 65.13 102.3 64.84Q102.68 64.55 102.91 63.99Q103.14 63.42 103.29 62.62Q103.43 62 103.56 61.11Q103.69 60.22 103.82 59.24Q103.95 58.26 104.06 57.37L106.77 57.37L106.77 65ZM111.62 65L116.41 65L116.41 64.05L112.7 64.05L112.7 60.99L116.19 60.99L116.19 60.05L112.7 60.05L112.7 57.37L116.41 57.37L116.41 56.43L111.62 56.43L111.62 65ZM124.69 65L125.99 65L122.1 60.59L125.82 56.43L124.59 56.43L120.81 60.58L120.81 56.43L119.73 56.43L119.73 65L120.81 65L120.81 60.65L124.69 65ZM34.83 63.25Q34.15 62.32 34.15 60.7Q34.15 59.08 34.84 58.16Q34.99 57.96 35.18 57.8Q35.85 57.24 36.98 57.24Q38.11 57.24 38.76 57.8Q38.95 57.96 39.1 58.16Q39.78 59.08 39.78 60.7Q39.78 62.32 39.1 63.25Q38.95 63.46 38.76 63.62Q38.1 64.18 36.97 64.18Q35.85 64.18 35.19 63.63Q34.99 63.46 34.83 63.25ZM69.73 63.25Q69.05 62.32 69.05 60.7Q69.05 59.08 69.73 58.16Q69.89 57.96 70.08 57.8Q70.75 57.24 71.88 57.24Q73.01 57.24 73.66 57.8Q73.85 57.96 74 58.16Q74.67 59.08 74.67 60.7Q74.67 62.32 74 63.25Q73.85 63.46 73.66 63.62Q73 64.18 71.87 64.18Q70.75 64.18 70.09 63.63Q69.89 63.46 69.73 63.25Z" fill="#FFFFFF" fill-opacity="1.000000" fill-rule="evenodd"/>
</svg>
